<svg width="27" height="27" viewBox="0 0 27 27" fill="none" xmlns="http://www.w3.org/2000/svg">
<rect width="27" height="27" rx="5" fill="#FF0000"/>
<path d="M9.75049 7.49994C9.75049 7.10211 9.90852 6.72058 10.1898 6.43928C10.4711 6.15797 10.8527 5.99994 11.2505 5.99994H15.7505C16.1483 5.99994 16.5298 6.15797 16.8111 6.43928C17.0925 6.72058 17.2505 7.10211 17.2505 7.49994V8.99994H20.2505C20.4494 8.99994 20.6402 9.07896 20.7808 9.21961C20.9215 9.36026 21.0005 9.55103 21.0005 9.74994C21.0005 9.94885 20.9215 10.1396 20.7808 10.2803C20.6402 10.4209 20.4494 10.4999 20.2505 10.4999H19.4487L18.7985 19.6064C18.7716 19.9849 18.6022 20.339 18.3246 20.5976C18.0469 20.8562 17.6816 20.9999 17.3022 20.9999H9.69799C9.31859 20.9999 8.95329 20.8562 8.67565 20.5976C8.39802 20.339 8.22868 19.9849 8.20174 19.6064L7.55299 10.4999H6.75049C6.55158 10.4999 6.36081 10.4209 6.22016 10.2803C6.07951 10.1396 6.00049 9.94885 6.00049 9.74994C6.00049 9.55103 6.07951 9.36026 6.22016 9.21961C6.36081 9.07896 6.55158 8.99994 6.75049 8.99994H9.75049V7.49994ZM11.2505 8.99994H15.7505V7.49994H11.2505V8.99994ZM9.05599 10.4999L9.69874 19.4999H17.303L17.9457 10.4999H9.05599ZM12.0005 11.9999C12.1994 11.9999 12.3902 12.079 12.5308 12.2196C12.6715 12.3603 12.7505 12.551 12.7505 12.7499V17.2499C12.7505 17.4489 12.6715 17.6396 12.5308 17.7803C12.3902 17.9209 12.1994 17.9999 12.0005 17.9999C11.8016 17.9999 11.6108 17.9209 11.4702 17.7803C11.3295 17.6396 11.2505 17.4489 11.2505 17.2499V12.7499C11.2505 12.551 11.3295 12.3603 11.4702 12.2196C11.6108 12.079 11.8016 11.9999 12.0005 11.9999ZM15.0005 11.9999C15.1994 11.9999 15.3902 12.079 15.5308 12.2196C15.6715 12.3603 15.7505 12.551 15.7505 12.7499V17.2499C15.7505 17.4489 15.6715 17.6396 15.5308 17.7803C15.3902 17.9209 15.1994 17.9999 15.0005 17.9999C14.8016 17.9999 14.6108 17.9209 14.4702 17.7803C14.3295 17.6396 14.2505 17.4489 14.2505 17.2499V12.7499C14.2505 12.551 14.3295 12.3603 14.4702 12.2196C14.6108 12.079 14.8016 11.9999 15.0005 11.9999Z" fill="white"/>
</svg>
