<svg width="31" height="26" viewBox="0 0 31 26" fill="none" xmlns="http://www.w3.org/2000/svg">
<path d="M2 24V22.7059C2 17.7028 5.84059 13.6471 10.5782 13.6471C15.3158 13.6471 19.1564 17.7028 19.1564 22.7059V24" stroke="black" stroke-width="2.5" stroke-linecap="round"/>
<path d="M16.7056 16.2354C16.7056 12.6618 19.4489 9.76482 22.8328 9.76482C26.2168 9.76482 28.9601 12.6618 28.9601 16.2354V16.8825" stroke="black" stroke-width="2.5" stroke-linecap="round"/>
<path d="M10.5781 13.6471C13.2852 13.6471 15.4799 11.3294 15.4799 8.47061C15.4799 5.61172 13.2852 3.29414 10.5781 3.29414C7.87089 3.29414 5.67627 5.61172 5.67627 8.47061C5.67627 11.3294 7.87089 13.6471 10.5781 13.6471Z" stroke="black" stroke-width="2.5" stroke-linecap="round" stroke-linejoin="round"/>
<path d="M22.8326 9.76471C24.8631 9.76471 26.509 8.02651 26.509 5.88235C26.509 3.73819 24.8631 2 22.8326 2C20.8022 2 19.1562 3.73819 19.1562 5.88235C19.1562 8.02651 20.8022 9.76471 22.8326 9.76471Z" stroke="black" stroke-width="2.5" stroke-linecap="round" stroke-linejoin="round"/>
</svg>
